<svg width="111" height="85" viewBox="0 0 111 85" fill="none" xmlns="http://www.w3.org/2000/svg">
<path d="M119.206 48.8707L140 69.5225L119.206 90.1743C112.222 97.1108 102.381 99.4755 93.4921 97.1108C89.0476 96.0072 85.0794 93.3272 81.5873 89.859L49.3651 57.8566C44.127 52.6542 35.3968 52.6542 30.1587 57.8566L18.7302 69.2072L30.1587 80.5578C35.3968 85.7601 44.127 85.7601 49.3651 80.5578L57.3016 72.6754L66.6667 81.9766L58.7302 89.859C55.2381 93.3272 50.9524 95.6919 46.5079 96.7955C37.619 99.1602 27.7778 96.7954 20.7936 89.859L0 69.2072L20.7936 48.5554C27.7778 41.6189 37.619 39.2542 46.5079 41.6189C50.9524 42.7224 55.2381 45.0871 58.7302 48.5554L90.9524 80.5578C96.1905 85.7601 104.603 86.0754 109.841 80.8731L121.27 69.5225L109.841 58.1719C104.603 52.9695 95.873 52.9695 90.6349 58.1719L83.0159 65.7389L73.6508 56.4377L81.2698 48.8707C84.7619 45.4024 89.0476 43.0377 93.4921 41.9342C101.905 39.7271 111.111 41.7765 118.095 47.7671C118.413 48.0824 118.889 48.3977 119.206 48.8707Z" fill="white"/>
<path d="M54.4442 15.1344C48.4125 21.125 48.4125 30.8991 54.4442 37.0473L69.6823 52.1815L84.9204 37.0473C90.9521 31.0567 90.9521 21.2826 84.9204 15.1344L69.6823 0.000213623L54.4442 15.1344Z" fill="white"/>
<mask id="mask0_9331_10735" style="mask-type:luminance" maskUnits="userSpaceOnUse" x="49" y="0" width="41" height="53">
<path d="M54.4442 15.1344C48.4125 21.125 48.4125 30.8991 54.4442 37.0473L69.6823 52.1815L84.9204 37.0473C90.9521 31.0567 90.9521 21.2826 84.9204 15.1344L69.6823 0.000213623L54.4442 15.1344Z" fill="white"/>
</mask>
<g mask="url(#mask0_9331_10735)">
<path d="M90.7931 0.000427246H48.2534V52.024H90.7931V0.000427246Z" fill="white"/>
</g>
</svg>
