<svg width="60" height="60" viewBox="0 0 60 60" fill="none" xmlns="http://www.w3.org/2000/svg">
<rect width="60" height="60" rx="30" fill="#F0F9FF"/>
<path d="M42.033 16.5H34.533C34.1352 16.5 33.7536 16.658 33.4723 16.9393C33.191 17.2206 33.033 17.6022 33.033 18C33.033 18.3978 33.191 18.7794 33.4723 19.0607C33.7536 19.342 34.1352 19.5 34.533 19.5H36.783V28.5H29.358C30.3504 27.2093 30.8911 25.6281 30.897 24C30.8969 22.3491 30.3521 20.7443 29.3471 19.4345C28.342 18.1247 26.9329 17.1832 25.3382 16.7559C23.7435 16.3286 22.0523 16.4394 20.5271 17.0712C19.0018 17.7029 17.7275 18.8203 16.902 20.25C16.7964 20.4208 16.7261 20.611 16.6953 20.8094C16.6646 21.0078 16.674 21.2104 16.7229 21.4051C16.7719 21.5998 16.8595 21.7828 16.9805 21.943C17.1015 22.1032 17.2534 22.2376 17.4273 22.338C17.6011 22.4385 17.7934 22.503 17.9927 22.5277C18.1919 22.5525 18.3941 22.537 18.5873 22.4822C18.7804 22.4273 18.9606 22.3343 19.1171 22.2085C19.2737 22.0827 19.4033 21.9268 19.4985 21.75C19.8934 21.066 20.4614 20.4979 21.1455 20.103C21.8295 19.708 22.6054 19.5001 23.3953 19.5C24.1851 19.4999 24.9611 19.7078 25.6452 20.1026C26.3292 20.4975 26.8973 21.0654 27.2924 21.7494C27.6874 22.4334 27.8955 23.2093 27.8956 23.9991C27.8958 24.789 27.688 25.565 27.2932 26.2491C26.8985 26.9332 26.3306 27.5014 25.6467 27.8965C24.9627 28.2916 24.1869 28.4998 23.397 28.5C22.9992 28.5 22.6176 28.658 22.3363 28.9393C22.055 29.2206 21.897 29.6022 21.897 30C21.897 30.3978 22.055 30.7794 22.3363 31.0607C22.6176 31.342 22.9992 31.5 23.397 31.5C24.1869 31.5002 24.9627 31.7084 25.6467 32.1035C26.3306 32.4986 26.8985 33.0668 27.2932 33.7509C27.688 34.435 27.8958 35.211 27.8956 36.0009C27.8955 36.7907 27.6874 37.5666 27.2924 38.2506C26.8973 38.9346 26.3292 39.5025 25.6452 39.8974C24.9611 40.2922 24.1851 40.5001 23.3953 40.5C22.6054 40.4999 21.8295 40.292 21.1455 39.897C20.4614 39.5021 19.8934 38.934 19.4985 38.25C19.2933 37.9183 18.967 37.6796 18.5888 37.5845C18.2106 37.4894 17.8102 37.5452 17.4725 37.7403C17.1348 37.9354 16.8864 38.2544 16.7799 38.6295C16.6734 39.0047 16.7172 39.4066 16.902 39.75C17.7275 41.1797 19.0018 42.2971 20.5271 42.9288C22.0523 43.5606 23.7435 43.6714 25.3382 43.2441C26.9329 42.8168 28.342 41.8753 29.3471 40.5655C30.3521 39.2557 30.8969 37.6509 30.897 36C30.8911 34.3719 30.3504 32.7907 29.358 31.5H36.783V42C36.783 42.3978 36.941 42.7794 37.2223 43.0607C37.5036 43.342 37.8852 43.5 38.283 43.5C38.6808 43.5 39.0623 43.342 39.3437 43.0607C39.625 42.7794 39.783 42.3978 39.783 42V19.5H42.033C42.4308 19.5 42.8123 19.342 43.0937 19.0607C43.375 18.7794 43.533 18.3978 43.533 18C43.533 17.6022 43.375 17.2206 43.0937 16.9393C42.8123 16.658 42.4308 16.5 42.033 16.5Z" fill="#0B4A6F"/>
</svg>
