<svg width="40" height="40" viewBox="0 0 40 40" fill="none" xmlns="http://www.w3.org/2000/svg">
<g clip-path="url(#clip0_7378_29153)">
<path d="M22.3829 25.1467H31.6658L34.1429 30.1686M22.3829 25.1467L19.9058 30.1686M22.3829 25.1467L26.0943 17.6221C26.3943 17.0151 26.54 16.7158 26.7458 16.616C26.9258 16.5329 27.1315 16.5329 27.3115 16.616C27.5172 16.7158 27.6629 17.0151 27.9629 17.6221L31.6743 25.1467" stroke="white" stroke-width="2" stroke-linecap="round" stroke-linejoin="round"/>
<path d="M5.85693 9.83145H23.8655" stroke="white" stroke-width="2" stroke-linecap="round" stroke-linejoin="round"/>
<path d="M14.8657 9.83145V23.6916" stroke="white" stroke-width="2" stroke-linecap="round" stroke-linejoin="round"/>
<path d="M14.8911 16.3334C14.8911 16.3334 15.1568 12.8163 19.2883 12.8163C23.4197 12.8163 22.3911 17.1232 22.3911 17.1232C22.3911 17.1232 21.6283 19.7755 18.6797 19.7423" stroke="white" stroke-width="2" stroke-linecap="round" stroke-linejoin="round"/>
<path d="M14.8654 16.1338C14.8654 16.1338 13.8797 12.2509 10.8711 12.2509C7.86253 12.2509 7.15967 15.1859 7.15967 16.1338C7.15967 17.0816 7.67395 19.6841 10.8711 19.6841C14.0682 19.6841 14.8654 16.1338 14.8654 16.1338Z" stroke="white" stroke-width="2" stroke-linecap="round" stroke-linejoin="round"/>
</g>
<defs>
<clipPath id="clip0_7378_29153">
<rect width="30" height="22" fill="white" transform="translate(5 9)"/>
</clipPath>
</defs>
</svg>
