<svg width="118" height="17" viewBox="0 0 118 17" fill="none" xmlns="http://www.w3.org/2000/svg">
<g clip-path="url(#clip0_1955_20006)">
<path d="M30.353 12.4L35.8413 4.76908H38.2508L32.7625 12.4H30.353ZM30.353 13.8131V12.4L31.8701 12.0281H38.1318V13.8131H30.353ZM30.6654 5.14096V3.35596H38.2508V4.76908L36.7188 5.14096H30.6654Z" fill="#00006E"/>
<path d="M44.3965 13.9765C43.633 13.9765 42.9191 13.8377 42.2547 13.56C41.6003 13.2824 41.0252 12.9006 40.5294 12.4146C40.0436 11.9188 39.6618 11.3436 39.3842 10.6891C39.1066 10.0247 38.9678 9.31571 38.9678 8.56201C38.9678 7.80836 39.1016 7.10924 39.3693 6.46463C39.647 5.81014 40.0287 5.23993 40.5146 4.75401C41.0104 4.25818 41.5855 3.87639 42.2399 3.60864C42.8943 3.33097 43.6033 3.19214 44.3668 3.19214C45.1402 3.19214 45.8541 3.33097 46.5085 3.60864C47.163 3.87639 47.7331 4.25818 48.219 4.75401C48.7148 5.23993 49.1015 5.81014 49.3791 6.46463C49.6567 7.11913 49.7955 7.82324 49.7955 8.57688C49.7955 9.33059 49.6567 10.0346 49.3791 10.6891C49.1015 11.3436 48.7148 11.9188 48.219 12.4146C47.7331 12.9006 47.163 13.2824 46.5085 13.56C45.864 13.8377 45.16 13.9765 44.3965 13.9765ZM44.3668 12.0874C45.0411 12.0874 45.6261 11.9386 46.1219 11.6411C46.6176 11.3436 47.0043 10.9321 47.282 10.4065C47.5695 9.88096 47.7133 9.26611 47.7133 8.56201C47.7133 8.04636 47.634 7.57534 47.4753 7.14888C47.3166 6.72249 47.0886 6.35553 46.7911 6.04814C46.4937 5.73081 46.1417 5.48785 45.7351 5.31926C45.3286 5.15068 44.8725 5.06639 44.3668 5.06639C43.7123 5.06639 43.1323 5.21514 42.6266 5.51264C42.1308 5.80022 41.7391 6.20678 41.4516 6.73238C41.1739 7.25799 41.0351 7.86786 41.0351 8.56201C41.0351 9.08761 41.1145 9.56859 41.2732 10.0049C41.4417 10.4412 41.6697 10.8131 41.9573 11.1205C42.2547 11.428 42.6068 11.666 43.0133 11.8345C43.4298 12.0031 43.8809 12.0874 44.3668 12.0874Z" fill="#00006E"/>
<path d="M56.4229 13.9765C55.6595 13.9765 54.9455 13.8377 54.2812 13.56C53.6268 13.2824 53.0517 12.9006 52.5559 12.4146C52.07 11.9188 51.6883 11.3436 51.4106 10.6891C51.133 10.0247 50.9941 9.31571 50.9941 8.56201C50.9941 7.80836 51.128 7.10924 51.3958 6.46463C51.6734 5.81014 52.0551 5.23993 52.541 4.75401C53.0368 4.25818 53.6119 3.87639 54.2663 3.60864C54.9207 3.33097 55.6297 3.19214 56.3932 3.19214C57.1666 3.19214 57.8805 3.33097 58.5349 3.60864C59.1894 3.87639 59.7595 4.25818 60.2454 4.75401C60.7412 5.23993 61.1278 5.81014 61.4058 6.46463C61.6831 7.11913 61.8218 7.82324 61.8218 8.57688C61.8218 9.33059 61.6831 10.0346 61.4058 10.6891C61.1278 11.3436 60.7412 11.9188 60.2454 12.4146C59.7595 12.9006 59.1894 13.2824 58.5349 13.56C57.8904 13.8377 57.1865 13.9765 56.4229 13.9765ZM56.3932 12.0874C57.0674 12.0874 57.6524 11.9386 58.1482 11.6411C58.644 11.3436 59.0307 10.9321 59.3084 10.4065C59.5959 9.88096 59.7397 9.26611 59.7397 8.56201C59.7397 8.04636 59.6604 7.57534 59.5017 7.14888C59.3431 6.72249 59.115 6.35553 58.8175 6.04814C58.5201 5.73081 58.1681 5.48785 57.7616 5.31926C57.355 5.15068 56.8989 5.06639 56.3932 5.06639C55.7388 5.06639 55.1587 5.21514 54.653 5.51264C54.1572 5.80022 53.7656 6.20678 53.478 6.73238C53.2004 7.25799 53.0616 7.86786 53.0616 8.56201C53.0616 9.08761 53.1409 9.56859 53.2995 10.0049C53.4681 10.4412 53.6962 10.8131 53.9837 11.1205C54.2812 11.428 54.6332 11.666 55.0397 11.8345C55.4562 12.0031 55.9073 12.0874 56.3932 12.0874Z" fill="#00006E"/>
<path d="M64.9126 9.9307V8.27958H67.3364C67.6539 8.27958 67.9416 8.21516 68.1995 8.0862C68.4574 7.9573 68.6606 7.77383 68.809 7.53583C68.958 7.28793 69.0322 6.99043 69.0322 6.64333C69.0322 6.30618 68.958 6.01363 68.809 5.76571C68.6606 5.51779 68.4574 5.32938 68.1995 5.20046C67.9416 5.07154 67.6539 5.00709 67.3364 5.00709H64.9126V3.35596H67.5451C68.2093 3.35596 68.8041 3.48983 69.3297 3.75758C69.8649 4.02533 70.2864 4.40713 70.5942 4.90296C70.9014 5.38888 71.0553 5.969 71.0553 6.64333C71.0553 7.31768 70.9014 7.90278 70.5942 8.39858C70.2864 8.88453 69.8649 9.26133 69.3297 9.52908C68.8041 9.79683 68.2093 9.9307 67.5451 9.9307H64.9126ZM63.4248 13.8131V3.35596H65.4478V13.8131H63.4248Z" fill="#00006E"/>
<path d="M75.6246 13.9616C74.7815 13.9616 74.0577 13.8179 73.4531 13.5303C72.8583 13.2427 72.3175 12.8113 71.8315 12.2361L73.1703 10.8974C73.4775 11.304 73.8345 11.6213 74.2414 11.8494C74.6477 12.0676 75.1434 12.1766 75.7286 12.1766C76.2541 12.1766 76.6708 12.0725 76.9779 11.8643C77.2954 11.656 77.4542 11.3685 77.4542 11.0015C77.4542 10.6842 77.3648 10.4264 77.1859 10.228C77.0077 10.0297 76.7699 9.86111 76.4725 9.72226C76.1848 9.58346 75.8624 9.45949 75.5054 9.35038C75.1587 9.23138 74.8065 9.09751 74.4494 8.94876C74.1021 8.80001 73.7804 8.61659 73.4829 8.39838C73.1952 8.17034 72.9623 7.88274 72.7835 7.53563C72.6052 7.17863 72.5158 6.73238 72.5158 6.19688C72.5158 5.56222 72.6697 5.02176 72.9769 4.57551C73.2846 4.12926 73.7056 3.78714 74.2414 3.54914C74.7767 3.31114 75.3813 3.19214 76.0558 3.19214C76.7699 3.19214 77.414 3.32601 77.9894 3.59376C78.5642 3.86151 79.0356 4.2086 79.4024 4.63501L78.0636 5.97377C77.7565 5.6366 77.439 5.38868 77.1117 5.23002C76.7942 5.07135 76.4323 4.99201 76.026 4.99201C75.5601 4.99201 75.1933 5.08126 74.9257 5.25976C74.6575 5.43826 74.5236 5.6961 74.5236 6.03327C74.5236 6.32086 74.6131 6.55388 74.7913 6.73238C74.9701 6.91088 75.2031 7.06461 75.4908 7.19351C75.7882 7.32246 76.1106 7.44638 76.4573 7.56538C76.8143 7.68438 77.1665 7.81826 77.5132 7.96701C77.8702 8.11576 78.1926 8.30913 78.4803 8.54713C78.7777 8.78513 79.0156 9.09259 79.1938 9.46938C79.3726 9.83634 79.462 10.2925 79.462 10.8379C79.462 11.8097 79.1196 12.5733 78.4353 13.1286C77.7516 13.684 76.8143 13.9616 75.6246 13.9616Z" fill="#00006E"/>
<path d="M83.225 13.8131V3.57908H85.2627V13.8131H83.225ZM79.8931 5.15584V3.35596H88.594V5.15584H79.8931Z" fill="#00006E"/>
<path d="M87.8521 13.8131L92.0611 3.35596H93.7119L97.9064 13.8131H95.7501L92.5076 5.23021H93.2509L89.9639 13.8131H87.8521ZM90.0831 11.8645V10.1687H95.7051V11.8645H90.0831Z" fill="#00006E"/>
<path d="M103.395 13.9616C102.632 13.9616 101.922 13.8278 101.268 13.56C100.613 13.2824 100.039 12.9006 99.5429 12.4146C99.0569 11.9188 98.6804 11.3436 98.4121 10.6891C98.1548 10.0346 98.0259 9.33059 98.0259 8.57688C98.0259 7.82324 98.1548 7.11913 98.4121 6.46463C98.6804 5.81014 99.0569 5.23993 99.5429 4.75401C100.039 4.2681 100.608 3.88631 101.253 3.60864C101.908 3.33097 102.621 3.19214 103.395 3.19214C104.228 3.19214 104.962 3.33097 105.596 3.60864C106.231 3.87639 106.791 4.24826 107.277 4.72427L105.909 6.09276C105.621 5.77543 105.269 5.52752 104.852 5.34902C104.436 5.17052 103.95 5.08126 103.395 5.08126C102.909 5.08126 102.463 5.16556 102.056 5.33414C101.66 5.49281 101.313 5.73081 101.015 6.04814C100.718 6.35553 100.49 6.7274 100.331 7.16376C100.172 7.59021 100.093 8.06124 100.093 8.57688C100.093 9.10249 100.172 9.57849 100.331 10.0049C100.49 10.4313 100.718 10.8032 101.015 11.1205C101.313 11.428 101.66 11.666 102.056 11.8345C102.463 12.0031 102.909 12.0874 103.395 12.0874C103.98 12.0874 104.481 11.9981 104.897 11.8196C105.324 11.6411 105.681 11.3883 105.968 11.061L107.336 12.4295C106.85 12.9155 106.285 13.2923 105.641 13.56C104.996 13.8278 104.248 13.9616 103.395 13.9616Z" fill="#00006E"/>
<path d="M115.064 13.8131L110.527 8.35395L114.945 3.35596H117.473L112.55 8.78533L112.565 7.8482L117.637 13.8131H115.064ZM108.743 13.8131V3.35596H110.766V13.8131H108.743Z" fill="#00006E"/>
<path d="M15.5435 6.64894V5.85205H22.5157V6.64894H15.5435Z" fill="#00006E"/>
<path fill-rule="evenodd" clip-rule="evenodd" d="M22.9531 6.29845C22.9531 6.8515 23.4022 7.29981 23.9563 7.29981C24.5103 7.29981 24.9595 6.8515 24.9595 6.29845C24.9595 5.74544 24.5103 5.29712 23.9563 5.29712C23.4022 5.29712 22.9531 5.74544 22.9531 6.29845ZM23.9563 8.09669C22.9614 8.09669 22.1548 7.29161 22.1548 6.29845C22.1548 5.30534 22.9614 4.50024 23.9563 4.50024C24.9513 4.50024 25.7578 5.30534 25.7578 6.29845C25.7578 7.29161 24.9513 8.09669 23.9563 8.09669Z" fill="#00006E"/>
<path d="M13.0879 10.7317V9.93481H20.0602V10.7317H13.0879Z" fill="#00006E"/>
<path fill-rule="evenodd" clip-rule="evenodd" d="M20.4975 10.3825C20.4975 10.9355 20.9467 11.3838 21.5007 11.3838C22.0548 11.3838 22.5039 10.9355 22.5039 10.3825C22.5039 9.82942 22.0548 9.3811 21.5007 9.3811C20.9467 9.3811 20.4975 9.82942 20.4975 10.3825ZM21.5007 12.1807C20.5058 12.1807 19.6992 11.3756 19.6992 10.3825C19.6992 9.38936 20.5058 8.58423 21.5007 8.58423C22.4957 8.58423 23.3022 9.38936 23.3022 10.3825C23.3022 11.3756 22.4957 12.1807 21.5007 12.1807Z" fill="#00006E"/>
<path d="M13.9067 14.5288V13.7319H24.5412V14.5288H13.9067Z" fill="#00006E"/>
<path fill-rule="evenodd" clip-rule="evenodd" d="M24.5889 14.1796C24.5889 14.7326 25.038 15.1809 25.592 15.1809C26.1461 15.1809 26.5952 14.7326 26.5952 14.1796C26.5952 13.6265 26.1461 13.1782 25.592 13.1782C25.038 13.1782 24.5889 13.6265 24.5889 14.1796ZM25.592 15.9778C24.5971 15.9778 23.7905 15.1727 23.7905 14.1796C23.7905 13.1865 24.5971 12.3813 25.592 12.3813C26.5869 12.3813 27.3935 13.1865 27.3935 14.1796C27.3935 15.1727 26.5869 15.9778 25.592 15.9778Z" fill="#00006E"/>
<path d="M11.4521 2.56616V1.76929H18.4244V2.56616H11.4521Z" fill="#00006E"/>
<path fill-rule="evenodd" clip-rule="evenodd" d="M18.8628 2.21571C18.8628 2.76875 19.3119 3.21707 19.866 3.21707C20.42 3.21707 20.8691 2.76875 20.8691 2.21571C20.8691 1.66268 20.42 1.21436 19.866 1.21436C19.3119 1.21436 18.8628 1.66268 18.8628 2.21571ZM19.866 4.01395C18.871 4.01395 18.0645 3.20885 18.0645 2.21571C18.0645 1.22258 18.871 0.41748 19.866 0.41748C20.8609 0.41748 21.6675 1.22258 21.6675 2.21571C21.6675 3.20885 20.8609 4.01395 19.866 4.01395Z" fill="#00006E"/>
<path d="M1.31543 4.78262C1.20148 4.67589 1.11285 4.54248 1.05799 4.39644C1.05517 4.37537 1.05939 4.35571 1.06924 4.33746C1.2465 4.0257 1.44064 3.72519 1.65448 3.43591L1.67137 3.41203C2.37338 2.47257 3.2625 1.68898 4.28246 1.10901C5.30382 0.529043 6.4335 0.168142 7.60121 0.0459692C8.76887 -0.0762032 9.94917 0.0459704 11.069 0.402658C12.1875 0.759347 13.2201 1.34353 14.1008 2.11728C14.1106 2.12712 14.1191 2.13835 14.1247 2.15099C14.1303 2.16363 14.1331 2.17767 14.1331 2.19171C14.1331 2.20576 14.1303 2.2198 14.1247 2.23244C14.1191 2.24507 14.1106 2.25631 14.1008 2.26614L7.33389 9.00812C6.78379 9.55576 6.12402 9.55855 5.57393 9.00812C4.15584 7.59961 2.73494 6.1911 1.31543 4.78121V4.78262Z" fill="#00006E"/>
<path d="M16.9679 8.47459V8.53779C16.9707 9.98139 16.6007 11.4011 15.8931 12.6608L15.872 12.7029C15.1362 14.0004 14.0712 15.0804 12.784 15.8344C11.4953 16.5886 10.0308 16.9916 8.53669 17C7.04265 17.0085 5.57391 16.6251 4.2754 15.885C2.97829 15.1464 1.89925 14.0791 1.1494 12.79L1.12408 12.7478C0.385487 11.4657 -0.00279849 10.0137 1.51837e-05 8.535V8.36791C1.51837e-05 8.34824 0.00564185 8.32996 0.0168966 8.31309C0.0281513 8.29766 0.0436275 8.28504 0.0619165 8.2766C0.0802053 8.26955 0.0998992 8.26816 0.119595 8.27101C0.139291 8.2752 0.156173 8.28504 0.170241 8.29906L3.47068 11.5907C3.82661 11.96 4.25288 12.255 4.72418 12.4557C5.19687 12.6566 5.70474 12.7605 6.21823 12.7605C6.73172 12.7605 7.2396 12.6566 7.71227 12.4557C8.185 12.255 8.61126 11.96 8.96721 11.5907C11.2533 9.31438 13.5394 7.03663 15.8241 4.75607C15.8495 4.72939 15.8734 4.69849 15.8931 4.66619C15.9029 4.65215 15.9156 4.63951 15.9324 4.63249C15.9479 4.62406 15.9662 4.62126 15.9831 4.62266C15.9999 4.62266 16.0169 4.62968 16.0323 4.63951C16.0464 4.64934 16.0591 4.66339 16.0661 4.67883C16.6612 5.85562 16.9707 7.1532 16.9707 8.4704L16.9679 8.47459Z" fill="#00006E"/>
</g>
<defs>
<clipPath id="clip0_1955_20006">
<rect width="118" height="17" fill="white"/>
</clipPath>
</defs>
</svg>
